{
  "source": "C:\\Users\\Peter\\Desktop\\stuff\\MIUN\\quantitative_research\\video_compression\\videos\\BVI-HD\\BVI-HD_CDVL_videos\\ORIG\\KineticFastPainting_1920x1080_60fps.mp4",
  "output": "C:\\Users\\Peter\\Desktop\\stuff\\MIUN\\quantitative_research\\video_compression\\compressed_videos\\BVI-HD\\hevc\\1\\KineticFastPainting_1920x1080_60fps_hevc.mp4",
  "codec": "hevc",
  "ok": "Input #0, mov,mp4,m4a,3gp,3g2,mj2, from 'C:\\Users\\Peter\\Desktop\\stuff\\MIUN\\quantitative_research\\video_compression\\videos\\BVI-HD\\BVI-HD_CDVL_videos\\ORIG\\KineticFastPainting_1920x1080_60fps.mp4':\n  Metadata:\n    major_brand     : isom\n    minor_version   : 512\n    compatible_brands: isomiso2avc1mp41\n    encoder         : Lavf54.28.101\n  Duration: 00:00:05.00, start: 0.000000, bitrate: 477980 kb/s\n  Stream #0:0[0x1](und): Video: h264 (High 4:4:4 Predictive) (avc1 / 0x31637661), yuv420p(progressive), 1920x1080, 477974 kb/s, 60 fps, 60 tbr, 60 tbn (default)\n    Metadata:\n      handler_name    : VideoHandler\n      vendor_id       : [0][0][0][0]\n[out#0/mp4 @ 00000247da71ab40] Codec AVOption b:a (set bitrate (in bits/s)) has not been used for any stream. The most likely reason is either wrong type (e.g. a video option with no video streams) or that it is a private option of some decoder which was not actually used for any stream.\nStream mapping:\n  Stream #0:0 -> #0:0 (h264 (native) -> hevc (libx265))\nPress [q] to stop, [?] for help\n[libx265 @ 00000247db1704c0] Unknown option: \"aq-mode.\nx265 [info]: HEVC encoder version 4.1+190-8f11c33ac\nx265 [info]: build info [Windows][GCC 15.1.0][64 bit] 10bit\nx265 [info]: using cpu capabilities: MMX2 SSE2Fast LZCNT SSSE3 SSE4.2 AVX FMA3 BMI2 AVX2\nx265 [info]: Main 10 profile, Level-4.1 (Main tier)\nx265 [info]: Thread pool created using 12 threads\nx265 [info]: Slices                              : 1\nx265 [info]: frame threads / pool features       : 3 / wpp(17 rows)\nx265 [info]: Coding QT: max CU size, min CU size : 64 / 8\nx265 [info]: Residual QT: max TU size, max depth : 32 / 1 inter / 1 intra\nx265 [info]: ME / range / subpel / merge         : star / 57 / 3 / 3\nx265 [info]: Keyframe min / max / scenecut / bias  : 25 / 250 / 40 / 5.00 \nx265 [info]: Lookahead / bframes / badapt        : 25 / 4 / 2\nx265 [info]: b-pyramid / weightp / weightb       : 1 / 1 / 0\nx265 [info]: References / ref-limit  cu / depth  : 4 / on / on\nx265 [info]: AQ: mode / str / qg-size / cu-tree  : 2 / 1.0 / 32 / 1\nx265 [info]: Rate Control / qCompress            : ABR-1000 kbps / 0.60\nx265 [info]: VBV/HRD buffer / max-rate / init    : 1000 / 1000 / 0.750\nx265 [info]: tools: rect limit-modes rd=4 psy-rd=2.00 rdoq=2 psy-rdoq=1.00\nx265 [info]: tools: rskip mode=1 signhide tmvp strong-intra-smoothing lslices=4\nx265 [info]: tools: deblock sao dhdr10-info\nOutput #0, mp4, to 'C:\\Users\\Peter\\Desktop\\stuff\\MIUN\\quantitative_research\\video_compression\\compressed_videos\\BVI-HD\\hevc\\1\\KineticFastPainting_1920x1080_60fps_hevc.mp4':\n  Metadata:\n    major_brand     : isom\n    minor_version   : 512\n    compatible_brands: isomiso2avc1mp41\n    encoder         : Lavf62.3.100\n  Stream #0:0(und): Video: hevc (hev1 / 0x31766568), yuv420p10le(tv, progressive), 1920x1080, q=2-31, 1000 kb/s, 60 fps, 15360 tbn (default)\n    Metadata:\n      encoder         : Lavc62.11.100 libx265\n      handler_name    : VideoHandler\n      vendor_id       : [0][0][0][0]\n    Side data:\n      cpb: bitrate max/min/avg: 1000000/0/1000000 buffer size: 1000000 vbv_delay: N/A\nframe=    0 fps=0.0 q=0.0 size=       0KiB time=N/A bitrate=N/A speed=N/A elapsed=0:00:01.04    \nframe=    0 fps=0.0 q=0.0 size=       0KiB time=N/A bitrate=N/A speed=N/A elapsed=0:00:01.69    \nframe=    0 fps=0.0 q=0.0 size=       0KiB time=N/A bitrate=N/A speed=N/A elapsed=0:00:02.21    \nframe=    0 fps=0.0 q=0.0 size=       0KiB time=N/A bitrate=N/A speed=N/A elapsed=0:00:02.78    \nframe=    0 fps=0.0 q=0.0 size=       0KiB time=N/A bitrate=N/A speed=N/A elapsed=0:00:03.29    \nframe=    0 fps=0.0 q=0.0 size=       0KiB time=N/A bitrate=N/A speed=N/A elapsed=0:00:03.84    \nframe=    0 fps=0.0 q=0.0 size=       0KiB time=N/A bitrate=N/A speed=N/A elapsed=0:00:04.37    \nframe=    0 fps=0.0 q=0.0 size=       0KiB time=N/A bitrate=N/A speed=N/A elapsed=0:00:04.99    \nframe=    0 fps=0.0 q=0.0 size=       0KiB time=N/A bitrate=N/A speed=N/A elapsed=0:00:05.63    \nframe=    1 fps=0.2 q=51.0 size=       0KiB time=-00:00:00.01 bitrate=N/A speed=N/A elapsed=0:00:06.15    \nframe=    1 fps=0.1 q=51.0 size=       0KiB time=-00:00:00.01 bitrate=N/A speed=N/A elapsed=0:00:06.71    \nframe=    1 fps=0.1 q=51.0 size=       0KiB time=-00:00:00.01 bitrate=N/A speed=N/A elapsed=0:00:07.28    \nframe=    2 fps=0.3 q=51.0 size=       0KiB time=00:00:00.00 bitrate=N/A speed=   0x elapsed=0:00:07.85    \nframe=    3 fps=0.4 q=51.0 size=       0KiB time=00:00:00.01 bitrate=  21.1kbits/s speed=0.00197x elapsed=0:00:08.45    \nframe=    4 fps=0.4 q=51.0 size=       0KiB time=00:00:00.03 bitrate=  10.6kbits/s speed=0.00367x elapsed=0:00:09.08    \nframe=    4 fps=0.4 q=51.0 size=       0KiB time=00:00:00.03 bitrate=  10.6kbits/s speed=0.00346x elapsed=0:00:09.63    \nframe=    4 fps=0.4 q=51.0 size=       0KiB time=00:00:00.03 bitrate=  10.6kbits/s speed=0.00327x elapsed=0:00:10.19    \nframe=    4 fps=0.4 q=51.0 size=       0KiB time=00:00:00.03 bitrate=  10.6kbits/s speed=0.00311x elapsed=0:00:10.73    \nframe=    4 fps=0.4 q=51.0 size=       0KiB time=00:00:00.03 bitrate=  10.6kbits/s speed=0.00296x elapsed=0:00:11.27    \nframe=    4 fps=0.3 q=51.0 size=       0KiB time=00:00:00.03 bitrate=  10.6kbits/s speed=0.0028x elapsed=0:00:11.89    \nframe=    5 fps=0.4 q=51.0 size=       0KiB time=00:00:00.03 bitrate=  10.6kbits/s speed=0.00266x elapsed=0:00:12.52    \nframe=    5 fps=0.4 q=51.0 size=       0KiB time=00:00:00.05 bitrate=   7.0kbits/s speed=0.0038x elapsed=0:00:13.17    \nframe=    5 fps=0.4 q=51.0 size=       0KiB time=00:00:00.05 bitrate=   7.0kbits/s speed=0.00364x elapsed=0:00:13.73    \nframe=    7 fps=0.5 q=51.0 size=       0KiB time=00:00:00.06 bitrate=   5.3kbits/s speed=0.00467x elapsed=0:00:14.26    \nframe=    7 fps=0.5 q=51.0 size=       0KiB time=00:00:00.08 bitrate=   4.2kbits/s speed=0.0056x elapsed=0:00:14.87    \nframe=    8 fps=0.5 q=51.0 size=       0KiB time=00:00:00.10 bitrate=   3.5kbits/s speed=0.00647x elapsed=0:00:15.46    \nframe=    8 fps=0.5 q=51.0 size=       0KiB time=00:00:00.10 bitrate=   3.5kbits/s speed=0.00623x elapsed=0:00:16.05    \nframe=    8 fps=0.5 q=51.0 size=       0KiB time=00:00:00.10 bitrate=   3.5kbits/s speed=0.00603x elapsed=0:00:16.59    \nframe=    9 fps=0.5 q=51.0 size=       0KiB time=00:00:00.11 bitrate=   3.0kbits/s speed=0.00679x elapsed=0:00:17.18    \nframe=   10 fps=0.6 q=51.0 size=       0KiB time=00:00:00.13 bitrate=   2.6kbits/s speed=0.00749x elapsed=0:00:17.80    \nframe=   11 fps=0.6 q=51.0 size=       0KiB time=00:00:00.15 bitrate=   2.3kbits/s speed=0.00816x elapsed=0:00:18.38    \nframe=   11 fps=0.6 q=51.0 size=       0KiB time=00:00:00.15 bitrate=   2.3kbits/s speed=0.00787x elapsed=0:00:19.05    \nframe=   11 fps=0.6 q=51.0 size=       0KiB time=00:00:00.15 bitrate=   2.3kbits/s speed=0.00765x elapsed=0:00:19.60    \nframe=   11 fps=0.5 q=51.0 size=       0KiB time=00:00:00.15 bitrate=   2.3kbits/s speed=0.0074x elapsed=0:00:20.25    \nframe=   11 fps=0.5 q=51.0 size=       0KiB time=00:00:00.15 bitrate=   2.3kbits/s speed=0.00719x elapsed=0:00:20.85    \nframe=   11 fps=0.5 q=51.0 size=       0KiB time=00:00:00.15 bitrate=   2.3kbits/s speed=0.007x elapsed=0:00:21.43    \nframe=   12 fps=0.5 q=51.0 size=       0KiB time=00:00:00.16 bitrate=   2.1kbits/s speed=0.00758x elapsed=0:00:21.97    \nframe=   12 fps=0.5 q=51.0 size=       0KiB time=00:00:00.16 bitrate=   2.1kbits/s speed=0.00739x elapsed=0:00:22.56    \nframe=   12 fps=0.5 q=51.0 size=       0KiB time=00:00:00.16 bitrate=   2.1kbits/s speed=0.00721x elapsed=0:00:23.12    \nframe=   12 fps=0.5 q=51.0 size=       0KiB time=00:00:00.16 bitrate=   2.1kbits/s speed=0.00702x elapsed=0:00:23.73    \nframe=   13 fps=0.5 q=51.0 size=       0KiB time=00:00:00.18 bitrate=   1.9kbits/s speed=0.00756x elapsed=0:00:24.26    \nframe=   13 fps=0.5 q=51.0 size=       0KiB time=00:00:00.18 bitrate=   1.9kbits/s speed=0.00739x elapsed=0:00:24.80    \nframe=   14 fps=0.6 q=51.0 size=       0KiB time=00:00:00.20 bitrate=   1.8kbits/s speed=0.00788x elapsed=0:00:25.38    \nframe=   15 fps=0.6 q=51.0 size=       0KiB time=00:00:00.21 bitrate=   1.6kbits/s speed=0.00835x elapsed=0:00:25.95    \nframe=   15 fps=0.6 q=51.0 size=       0KiB time=00:00:00.21 bitrate=   1.6kbits/s speed=0.00817x elapsed=0:00:26.52    \nframe=   15 fps=0.6 q=51.0 size=       0KiB time=00:00:00.21 bitrate=   1.6kbits/s speed=0.00799x elapsed=0:00:27.12    \nframe=   16 fps=0.6 q=51.0 size=       0KiB time=00:00:00.23 bitrate=   1.5kbits/s speed=0.00842x elapsed=0:00:27.71    \nframe=   16 fps=0.6 q=51.0 size=       0KiB time=00:00:00.23 bitrate=   1.5kbits/s speed=0.00826x elapsed=0:00:28.25    \nframe=   17 fps=0.6 q=51.0 size=       0KiB time=00:00:00.25 bitrate=   1.4kbits/s speed=0.00868x elapsed=0:00:28.80    \nframe=   17 fps=0.6 q=51.0 size=       0KiB time=00:00:00.25 bitrate=   1.4kbits/s speed=0.0085x elapsed=0:00:29.42    \nframe=   18 fps=0.6 q=51.0 size=       0KiB time=00:00:00.26 bitrate=   1.3kbits/s speed=0.00888x elapsed=0:00:30.02    \nframe=   18 fps=0.6 q=51.0 size=       0KiB time=00:00:00.26 bitrate=   1.3kbits/s speed=0.00872x elapsed=0:00:30.56    \nframe=   18 fps=0.6 q=51.0 size=       0KiB time=00:00:00.26 bitrate=   1.3kbits/s speed=0.00858x elapsed=0:00:31.08    \nframe=   19 fps=0.6 q=51.0 size=       0KiB time=00:00:00.28 bitrate=   1.2kbits/s speed=0.00894x elapsed=0:00:31.67    \nframe=   19 fps=0.6 q=51.0 size=       0KiB time=00:00:00.28 bitrate=   1.2kbits/s speed=0.00878x elapsed=0:00:32.26    \nframe=   19 fps=0.6 q=51.0 size=       0KiB time=00:00:00.28 bitrate=   1.2kbits/s speed=0.00862x elapsed=0:00:32.88    \nframe=   20 fps=0.6 q=51.0 size=       0KiB time=00:00:00.30 bitrate=   1.2kbits/s speed=0.00897x elapsed=0:00:33.42    \nframe=   21 fps=0.6 q=51.0 size=       0KiB time=00:00:00.31 bitrate=   1.1kbits/s speed=0.00931x elapsed=0:00:34.02    \nframe=   21 fps=0.6 q=51.0 size=       0KiB time=00:00:00.31 bitrate=   1.1kbits/s speed=0.00913x elapsed=0:00:34.67    \nframe=   22 fps=0.6 q=51.0 size=       0KiB time=00:00:00.33 bitrate=   1.1kbits/s speed=0.00947x elapsed=0:00:35.20    \nframe=   22 fps=0.6 q=51.0 size=       0KiB time=00:00:00.33 bitrate=   1.1kbits/s speed=0.0093x elapsed=0:00:35.83    \nframe=   23 fps=0.6 q=51.0 size=       0KiB time=00:00:00.35 bitrate=   1.0kbits/s speed=0.00961x elapsed=0:00:36.42    \nframe=   24 fps=0.6 q=51.0 size=       0KiB time=00:00:00.36 bitrate=   1.0kbits/s speed=0.00992x elapsed=0:00:36.94    \nframe=   24 fps=0.6 q=51.0 size=       0KiB time=00:00:00.36 bitrate=   1.0kbits/s speed=0.00978x elapsed=0:00:37.49    \nframe=   25 fps=0.7 q=51.0 size=       0KiB time=00:00:00.38 bitrate=   0.9kbits/s speed=0.0101x elapsed=0:00:38.03    \nframe=   25 fps=0.6 q=51.0 size=       0KiB time=00:00:00.38 bitrate=   0.9kbits/s speed=0.00993x elapsed=0:00:38.60    \nframe=   26 fps=0.7 q=51.0 size=       0KiB time=00:00:00.40 bitrate=   0.9kbits/s speed=0.0102x elapsed=0:00:39.16    \nframe=   26 fps=0.7 q=51.0 size=       0KiB time=00:00:00.40 bitrate=   0.9kbits/s speed=0.0101x elapsed=0:00:39.73    \nframe=   27 fps=0.7 q=51.0 size=       0KiB time=00:00:00.41 bitrate=   0.8kbits/s speed=0.0103x elapsed=0:00:40.31    \nframe=   28 fps=0.7 q=51.0 size=       0KiB time=00:00:00.43 bitrate=   0.8kbits/s speed=0.0106x elapsed=0:00:40.91    \nframe=   29 fps=0.7 q=51.0 size=       0KiB time=00:00:00.45 bitrate=   0.8kbits/s speed=0.0108x elapsed=0:00:41.47    \nframe=   29 fps=0.7 q=51.0 size=       0KiB time=00:00:00.45 bitrate=   0.8kbits/s speed=0.0107x elapsed=0:00:42.05    \nframe=   29 fps=0.7 q=51.0 size=       0KiB time=00:00:00.45 bitrate=   0.8kbits/s speed=0.0106x elapsed=0:00:42.62    \nframe=   30 fps=0.7 q=51.0 size=       0KiB time=00:00:00.46 bitrate=   0.8kbits/s speed=0.0108x elapsed=0:00:43.23    \nframe=   31 fps=0.7 q=51.0 size=       0KiB time=00:00:00.48 bitrate=   0.7kbits/s speed=0.011x elapsed=0:00:43.84    \nframe=   31 fps=0.7 q=51.0 size=       0KiB time=00:00:00.48 bitrate=   0.7kbits/s speed=0.0109x elapsed=0:00:44.43    \n[in#0/mov,mp4,m4a,3gp,3g2,mj2 @ 00000247da7164c0] Error during demuxing: Immediate exit requested\nReceived > 3 system signals, hard exiting\n",
  "seconds": 45.42953324317932
}